<svg width="19" height="19" viewBox="0 0 19 19" fill="none" xmlns="http://www.w3.org/2000/svg">
<path d="M2.188 4.376C3.3964 4.376 4.376 3.3964 4.376 2.188C4.376 0.979601 3.3964 0 2.188 0C0.979601 0 0 0.979601 0 2.188C0 3.3964 0.979601 4.376 2.188 4.376Z" fill="#010205"/>
<path d="M6.44278 6.03437V18.1734H10.2118V12.1704C10.2118 10.5864 10.5098 9.05237 12.4738 9.05237C14.4108 9.05237 14.4348 10.8634 14.4348 12.2704V18.1744H18.2058V11.5174C18.2058 8.24738 17.5018 5.73438 13.6798 5.73438C11.8448 5.73438 10.6148 6.74138 10.1118 7.69438H10.0608V6.03437H6.44278ZM0.300781 6.03437H4.07578V18.1734H0.300781V6.03437Z" fill="#010205"/>
</svg>
